# xmcd CD database file
#
# Track frame offsets:
#	150
#	16350
#	34257
#	53467
#	90369
#	109819
#	127138
#	156510
#	177072
#	189573
#	210397
#	232863
#	252844
#
# Disc length: 3650 seconds
#
# Revision: 0
# Processed by: cddbd v1.5.2PL0 Copyright (c) Steve Scherf et al.
# Submitted via: CDex 1.51
#
DISCID=a10e400d
DTITLE=The Hoochie Coochie Men Ft J Lord - Danger, White Men Dancing
DYEAR=2000
DGENRE=Blues
TTITLE0=Thre Blues Just Got Sadder
TTITLE1=Gotta Find Some Fire
TTITLE2=Twisted System
TTITLE3=Over and Over
TTITLE4=Let It Go
TTITLE5=Heart Of Stone
TTITLE6=If This Ain't The Blues
TTITLE7=Danger White Men Dancing
TTITLE8=Dead Presidents
TTITLE9=Hoochie Coochie Man
TTITLE10=Bottle O'Wine
TTITLE11=Everybody Wants To Go To Heaven
TTITLE12=Tell Your Story Walkin'
EXTD=YEAR: 2000
EXTT0=
EXTT1=
EXTT2=
EXTT3=
EXTT4=
EXTT5=
EXTT6=
EXTT7=
EXTT8=
EXTT9=
EXTT10=
EXTT11=
EXTT12=
PLAYORDER=
